<svg width="93" height="24" viewBox="0 0 93 24" fill="none" xmlns="http://www.w3.org/2000/svg">
<path d="M93 21.961L92.9625 23.796H91.24L83.2636 16.7184L75.2873 23.796H73.5647L73.5273 21.961L81.3538 15.0333L73.5273 8.06802L73.5647 6.23309H75.2873L83.2636 13.3107L91.24 6.23309H92.9625L93 8.06802L85.1735 15.0333L93 21.961Z" fill="#A5FFA3"/>
<path d="M71.099 3.68668H68.6649V1.32748H71.099V3.68668ZM71.099 23.796H68.6649V6.45779H71.099V23.796Z" fill="#A5FFA3"/>
<path d="M65.5644 18.1039C65.5644 19.8016 65.0277 21.1746 63.9542 22.2232C62.8807 23.2717 61.4951 23.796 59.7975 23.796H51.7463C50.0487 23.796 48.6257 23.1843 47.4773 21.961C46.3539 20.7378 45.7921 19.2773 45.7921 17.5797V0.166595H48.2262V17.8418C48.2262 18.8154 48.5633 19.6518 49.2373 20.3508C49.9363 21.0249 50.7727 21.3619 51.7463 21.3619H59.7975C60.7961 21.3619 61.595 21.0124 62.1941 20.3133C62.7933 19.6143 63.0929 18.7655 63.0929 17.7669V12.4494C63.0929 11.4508 62.7808 10.5645 62.1567 9.7906C61.5326 9.01669 60.7212 8.62973 59.7226 8.62973H50.6603L50.6229 6.23309L59.7226 6.19564C61.4702 6.19564 62.8807 6.76984 63.9542 7.91823C65.0277 9.06662 65.5644 10.5271 65.5644 12.2996V18.1039Z" fill="#A5FFA3"/>
<path d="M43.0024 17.7669C43.0024 19.4396 42.4656 20.875 41.3921 22.0734C40.3436 23.2467 38.983 23.8334 37.3104 23.8334H28.8847C27.1871 23.8334 25.789 23.2467 24.6906 22.0734C23.5921 20.9 23.0429 19.4645 23.0429 17.7669V11.9251C23.0429 10.2025 23.5796 8.79199 24.6531 7.69353C25.7516 6.59507 27.1621 6.04584 28.8847 6.04584H37.1606C38.8582 6.04584 40.2562 6.60755 41.3547 7.73097C42.4532 8.82943 43.0024 10.2275 43.0024 11.9251V17.7669ZM40.5309 17.5797V12.2996C40.5309 11.276 40.2188 10.3773 39.5947 9.60335C38.9705 8.82943 38.1592 8.44248 37.1606 8.44248H28.8847C27.8861 8.44248 27.0747 8.82943 26.4506 9.60335C25.8265 10.3773 25.5144 11.276 25.5144 12.2996V17.5797C25.5144 18.5783 25.8265 19.4645 26.4506 20.2384C27.0747 21.0124 27.8861 21.3993 28.8847 21.3993H37.1606C38.1592 21.3993 38.9705 21.0124 39.5947 20.2384C40.2188 19.4645 40.5309 18.5783 40.5309 17.5797Z" fill="#A5FFA3"/>
<path d="M19.7723 12.6366C19.7723 14.3842 19.1981 15.8072 18.0497 16.9056C16.9013 18.0041 15.4409 18.5533 13.6683 18.5533C13.4936 18.5533 12.807 18.5408 11.6087 18.5159L19.2106 21.9236L19.1731 23.7585H16.8139L4.75583 18.3286V16.1192H13.4062C16.0275 16.1192 17.3382 14.7961 17.3382 12.1498C17.3382 11.0014 16.9887 10.1276 16.2897 9.52848C15.6156 8.90435 14.7044 8.59229 13.556 8.59229C12.7072 8.59229 11.434 8.60477 9.73635 8.62973C8.06369 8.62973 6.80296 8.62973 5.95415 8.62973C4.98052 8.62973 4.14419 8.97925 3.44517 9.67827C2.77111 10.3523 2.43409 11.1762 2.43409 12.1498V23.7585H0V12.4494C0 10.7518 0.561713 9.29131 1.68514 8.06802C2.83353 6.81977 4.25653 6.19565 5.95415 6.19565H14.0054C15.8528 6.19565 17.2883 6.81977 18.3118 8.06802C19.2855 9.21641 19.7723 10.7393 19.7723 12.6366Z" fill="#A5FFA3"/>
</svg>
